<?xml version="1.0" encoding="utf-8"?>
<!-- Generator: Adobe Illustrator 19.0.0, SVG Export Plug-In . SVG Version: 6.00 Build 0)  -->
<svg version="1.1" id="Layer_1" xmlns="http://www.w3.org/2000/svg" xmlns:xlink="http://www.w3.org/1999/xlink" x="0px" y="0px"
	 viewBox="526.3 0 900 500" style="enable-background:new 526.3 0 900 500;" xml:space="preserve">
<g id="overallRoot">
	<style type="text/css">
		.st0{fill:none;}
	</style>
	<rect id="VERY_BACK" x="0" y="0" class="st0" width="2000" height="500"/>
	<polygon id="XMLID_16_" points="1360.6,372 1360.6,378.7 1354.1,378.7 1354.1,500 1082.8,500 1082.8,378.7 1076.3,378.7 1076.3,372
		1117.5,351.1 1117.5,325 1129.3,325 1129.3,345.1 1167.4,325.8 1269.4,325.8 1307.6,345.1 1307.6,325 1319.3,325 1319.3,351.1 "/>
	<path id="XMLID_12_" d="M1082.8,447v5.5h-27.7v-2.7c0,0,4,0.8,4-4h23.7V447z"/>
	<rect id="XMLID_27_" x="1058.4" y="452.4" width="5.6" height="2.3"/>
	<polygon id="XMLID_28_" points="1063,454.7 1063.9,496 1058.4,496 1059.6,454.7 "/>
	<rect id="XMLID_38_" x="1076.3" y="452.4" width="5.6" height="2.3"/>
	<rect id="XMLID_35_" x="1057.4" y="496" width="25.4" height="4"/>
	<polygon id="XMLID_34_" points="1080.9,454.7 1081.8,496 1076.3,496 1077.4,454.7 "/>
	<path id="XMLID_50_" d="M1354.1,447v5.5h27.7v-2.7c0,0-4,0.8-4-4h-23.7V447z"/>
	<rect id="XMLID_49_" x="1372.9" y="452.4" width="5.6" height="2.3"/>
	<polygon id="XMLID_45_" points="1373.9,454.7 1372.9,496 1378.5,496 1377.3,454.7 "/>
	<rect id="XMLID_43_" x="1355" y="452.4" width="5.6" height="2.3"/>
	<rect id="XMLID_42_" x="1354.1" y="496" width="25.4" height="4"/>
	<polygon id="XMLID_33_" points="1356,454.7 1355,496 1360.6,496 1359.4,454.7 "/>
	<g id="XMLID_88_">
		<path id="XMLID_11_" d="M1976.6,356.8v36h5.3v107l-42.8-0.2l-42.8,0.2h-26.5v0.2h-402.1v-82.4h-7.7v-7.5c0,0,9.1-3.7,23.7-9.2
			v-65.5h160v15.2c9.6-1.8,18.2-2.8,25-2.8c53.9,0,208.7,62.3,208.7,62.3v7.5h-7.7V444h26.5v-51.2h5.3v-36h-8.5v-7.2h13.5v-6.1h65.1
			v6.1h13.5v7.2H1976.6z"/>
		<path id="XMLID_92_" d="M1896.3,442.8"/>
	</g>
	<polygon id="XMLID_19_" points="199.1,334.6 199.1,500 14.8,500 14.8,188.4 22.1,163.4 29.4,188.4 29.4,211 34.6,211 34.6,215.4
		41.3,215.4 41.3,210.9 46.2,210.9 46.2,204.3 51,204.3 51,198 53.1,182.4 55.2,198 55.2,204.3 60,204.3 60,210.9 64.9,210.9
		64.9,215.4 71.5,215.4 71.5,211 76.8,211 76.8,188.4 84.1,163.4 91.4,188.4 91.4,334.6 145.3,307.4 "/>
	<g id="XMLID_3_">
		<path id="XMLID_25_" d="M616.8,265.9v0.9h-3.1v-1.6h0l0.5,0C615.1,265.3,616,265.5,616.8,265.9z"/>
		<polygon id="XMLID_6_" points="614.2,265.3 614.2,254.6 613.7,254.6 613.7,265.2 	"/>
		<rect id="XMLID_36_" x="613.7" y="263.3" width="3.1" height="3.5"/>
		<path id="XMLID_40_" d="M926.4,364.2v17.3L865,357.3L803.3,385v-20.9l-9.1,0.1v26.6h-65v-20.2h-4.4V347h-9.1v22.6h-84
			c0,0,0-11.3,0-18.2c0-6.9,4-5.7,4-5.7v-3.1l-6.5-0.1v-51c0.1-1.1,0.2-3.4,3.4-3.6v-2.3h-4.9c-2.2,0.2-2.5-16.4-10.9-19.9v0.9h-6.2
			v-0.9c-8.4,3.5-8.7,20.1-10.9,19.9h-4.9v2.3c3.2,0.2,3.3,2.5,3.4,3.6v51l-6.5,0.1v3.1c0,0,4-1.2,4,5.7c0,6.9,0,18.2,0,18.2h-84V347
			h-9.1v23.6h-4.4v20.2h-65v-26.6l-9.1-0.1V385l-61.7-27.7l-61.5,24.2v-17.3h-9.1V500h643.8V364.2H926.4z M613.7,377.7
			c-4.5,0-8.1-3.6-8.1-8.1c0-4.5,3.6-8.1,8.1-8.1c4.5,0,8.1,3.6,8.1,8.1C621.8,374,618.2,377.7,613.7,377.7z"/>
	</g>
	<g id="XMLID_9_">
		<path id="XMLID_24_" d="M613.7,266.4v1.6h-3.1v-0.9c0.8-0.3,1.7-0.5,2.6-0.6L613.7,266.4L613.7,266.4z"/>
		<polygon id="XMLID_13_" points="613.2,266.4 613.2,255.8 613.7,255.8 613.7,266.4 	"/>
		<rect id="XMLID_31_" x="610.6" y="264.4" width="3.1" height="3.5"/>
	</g>
</g>
</svg>
