<?xml version="1.0" encoding="utf-8"?>
<!-- Generator: Adobe Illustrator 19.0.0, SVG Export Plug-In . SVG Version: 6.00 Build 0)  -->
<svg version="1.1" id="Layer_1" xmlns="http://www.w3.org/2000/svg" xmlns:xlink="http://www.w3.org/1999/xlink" x="0px" y="0px"
	 viewBox="750 0 2000 500" style="enable-background:new 750 0 2000 500;" xml:space="preserve">
<g id="overallRoot">
	<style type="text/css">
		.st0{fill:#C1B06B;}
		.st1{fill:#9E5351;}
		.st2{fill:#8E4A4A;}
		.st3{fill:#607C8A;}
		.st4{fill:#485B60;}
		.st5{fill:#E6E6E6;}
		.st6{fill:#CCCCCC;}
		.st7{fill:#B3B3B3;}
		.st8{fill:#80808F;}
		.st9{fill:#F2F2F2;}
		.st10{fill:#DDD099;}
		.st11{fill:#D8C775;}
		.st12{fill:#C46762;}
		.st13{fill:#858F98;}
		.st14{fill:#29353A;}
		.st15{fill:#252C2D;}
		.st16{fill:#C7CBD2;}
		.st17{fill:#BAC3C9;}
		.st18{fill:none;stroke:#BAC3C9;stroke-width:2;stroke-miterlimit:10;}
		.st19{fill:#665646;}
		.st20{fill:#C0C3C9;}
		.st21{fill:#AFB8BC;}
		.st22{fill:#AEB1B5;}
		.st23{fill:none;stroke:#F2F2F2;stroke-miterlimit:10;}
		.st24{fill:#D3D3D3;}
	</style>
	<g id="SH">
		<path class="st0" d="M1364.2,313.1c0,0,3.5,0.8,3.5,3.2s1,9.7,2.2,9.7s0.3,0.9,0,0.9s-5.7,0-5.7,0V313.1z"/>
		<rect x="1364.2" y="426" class="st1" width="114.1" height="74"/>
		<rect x="1478.4" y="433.9" class="st2" width="53.7" height="66.1"/>
		<rect x="1364.2" y="386.6" class="st3" width="114.1" height="39.5"/>
		<rect x="1478.4" y="402.7" class="st4" width="53.7" height="33.5"/>
		<rect x="1364.2" y="426" class="st5" width="114.1" height="2.8"/>
		<rect x="1364.2" y="428.6" class="st6" width="114.1" height="1.4"/>
		<g>
			<g>
				<path class="st6" d="M1448,438.3V477h17v-38.8L1448,438.3L1448,438.3z M1463.3,476.4h-13.6V440h13.6V476.4z"/>
				<rect x="1445.9" y="477" class="st7" width="21.2" height="2.7"/>
				<rect x="1449.8" y="440" class="st8" width="13.6" height="36.3"/>
			</g>
			<rect x="1456" y="440" class="st9" width="1.1" height="36.3"/>
			<rect x="1449.8" y="446.8" class="st9" width="13.6" height="1.1"/>
			<rect x="1449.8" y="454.1" class="st9" width="13.6" height="1.1"/>
			<rect x="1449.8" y="468.6" class="st9" width="13.6" height="1.1"/>
			<rect x="1449.8" y="461.3" class="st9" width="13.6" height="1.1"/>
		</g>
		<g>
			<g>
				<path class="st6" d="M1417.3,438.3V477h17v-38.8L1417.3,438.3L1417.3,438.3z M1432.7,476.4h-13.6V440h13.6V476.4z"/>
				<rect x="1415.2" y="477" class="st7" width="21.2" height="2.7"/>
				<rect x="1419" y="440" class="st8" width="13.6" height="36.3"/>
			</g>
			<rect x="1425.2" y="440" class="st9" width="1.1" height="36.3"/>
			<rect x="1419" y="446.8" class="st9" width="13.6" height="1.1"/>
			<rect x="1419" y="454.1" class="st9" width="13.6" height="1.1"/>
			<rect x="1419" y="468.6" class="st9" width="13.6" height="1.1"/>
			<rect x="1419" y="461.3" class="st9" width="13.6" height="1.1"/>
		</g>
		<g>
			<g>
				<path class="st6" d="M1386.5,438.3V477h17v-38.8L1386.5,438.3L1386.5,438.3z M1401.8,476.4h-13.6V440h13.6V476.4z"/>
				<rect x="1384.4" y="477" class="st7" width="21.2" height="2.7"/>
				<rect x="1388.2" y="440" class="st8" width="13.6" height="36.3"/>
			</g>
			<rect x="1394.5" y="440" class="st9" width="1.1" height="36.3"/>
			<rect x="1388.2" y="446.8" class="st9" width="13.6" height="1.1"/>
			<rect x="1388.2" y="454.1" class="st9" width="13.6" height="1.1"/>
			<rect x="1388.2" y="468.6" class="st9" width="13.6" height="1.1"/>
			<rect x="1388.2" y="461.3" class="st9" width="13.6" height="1.1"/>
		</g>
		<path class="st5" d="M1382.7,312v-1.6c-0.9,0-1.7-0.8-2.1-1.8h-16.3v3.4H1382.7z"/>
		<rect x="1370.2" y="312" class="st9" width="2.5" height="24.3"/>
		<rect x="1377" y="312" class="st9" width="2.5" height="24.3"/>
		<path class="st10" d="M1364.2,308.6v-26.5c0,0,11.9,0.9,12.3,26.5H1364.2z"/>
		<path class="st11" d="M1364.2,282.2c0,0,6.9,7.5,6.5,26.5h-6.5V282.2z"/>
		<g>
			<g>
				<path class="st6" d="M1364.2,438.3v1.8h6.8v36.3h-6.8v0.7h8.5v-38.8H1364.2z"/>
				<rect x="1364.2" y="477" class="st7" width="10.6" height="2.7"/>
				<rect x="1364.2" y="440" class="st8" width="6.8" height="36.3"/>
			</g>
			<rect x="1364.2" y="440" class="st9" width="0.5" height="36.3"/>
			<rect x="1364.2" y="446.8" class="st9" width="6.8" height="1"/>
			<rect x="1364.2" y="454.1" class="st9" width="6.8" height="1"/>
			<rect x="1364.2" y="468.6" class="st9" width="6.8" height="1"/>
			<rect x="1364.2" y="461.3" class="st9" width="6.8" height="1.1"/>
		</g>
		<rect x="1452.8" y="368.6" class="st12" width="9" height="23.6"/>
		<rect x="1532" y="402.7" class="st1" width="115.4" height="97.3"/>
		<rect x="1473.2" y="493.2" class="st13" width="63.6" height="6.8"/>
		<polygon class="st3" points="1589.8,379.2 1527.7,404.6 1589.8,404.6 1651.9,404.6 	"/>
		<rect x="1527.7" y="404.6" class="st5" width="124.3" height="2.8"/>
		<rect x="1527.7" y="407.2" class="st6" width="124.3" height="1.8"/>
		<g>
			<circle class="st6" cx="1565" cy="459.5" r="8.2"/>
			<rect x="1571.7" y="458.6" class="st8" width="9" height="24.6"/>
			<path class="st8" d="M1580.7,458.7v24.6h-31.3v-24.6h9.1c0.1-0.4,0.1-0.7,0.2-1.1h12.7c0.1,0.3,0.2,0.7,0.2,1.1H1580.7z"/>
			<path class="st8" d="M1571.3,457.6h-12.7c0.8-2.7,3.3-4.7,6.3-4.7C1568,452.8,1570.5,454.8,1571.3,457.6z"/>
			<rect x="1558.4" y="457.6" class="st9" width="13.2" height="1.1"/>
			<rect x="1564.4" y="452.8" class="st9" width="1.1" height="30.5"/>
			<rect x="1558.2" y="462.4" class="st9" width="13.6" height="0.7"/>
			<rect x="1558.2" y="467.5" class="st9" width="13.6" height="0.7"/>
			<rect x="1558.2" y="477.8" class="st9" width="13.6" height="0.7"/>
			<rect x="1558.2" y="472.6" class="st9" width="13.6" height="0.7"/>
			<rect x="1552.9" y="457.6" class="st9" width="0.8" height="25.7"/>
			<rect x="1548.4" y="462.4" class="st9" width="9.6" height="0.7"/>
			<rect x="1548.4" y="467.5" class="st9" width="9.6" height="0.7"/>
			<rect x="1548.4" y="477.8" class="st9" width="9.6" height="0.7"/>
			<rect x="1548.4" y="472.6" class="st9" width="9.6" height="0.7"/>
			<rect x="1576.2" y="457.6" class="st9" width="0.8" height="25.7"/>
			<rect x="1571.8" y="462.4" class="st9" width="9.6" height="0.7"/>
			<rect x="1571.8" y="467.5" class="st9" width="9.6" height="0.7"/>
			<rect x="1571.8" y="477.8" class="st9" width="9.6" height="0.7"/>
			<rect x="1571.8" y="472.6" class="st9" width="9.6" height="0.7"/>
			<path class="st6" d="M1582,457.6v26.8h-34v-26.8h10.7c-0.1,0.3-0.2,0.7-0.2,1.1h-9.1v24.6h31.3v-24.6h-9.1
				c-0.1-0.4-0.1-0.7-0.2-1.1H1582z"/>
			<rect x="1556.8" y="458.6" class="st6" width="1.5" height="24.6"/>
			<rect x="1571.7" y="458.6" class="st6" width="1.5" height="24.6"/>
			<rect x="1545.7" y="484.4" class="st7" width="38.9" height="2.7"/>
		</g>
		<g>
			<circle class="st6" cx="1616.7" cy="459.5" r="8.2"/>
			<rect x="1623.3" y="458.6" class="st8" width="9" height="24.6"/>
			<path class="st8" d="M1632.3,458.7v24.6H1601v-24.6h9.1c0.1-0.4,0.1-0.7,0.2-1.1h12.7c0.1,0.3,0.2,0.7,0.2,1.1H1632.3z"/>
			<path class="st8" d="M1623,457.6h-12.7c0.8-2.7,3.3-4.7,6.3-4.7C1619.7,452.8,1622.2,454.8,1623,457.6z"/>
			<rect x="1610.2" y="457.6" class="st9" width="13.2" height="1.1"/>
			<rect x="1616.2" y="452.8" class="st9" width="1.1" height="30.5"/>
			<rect x="1609.8" y="462.4" class="st9" width="13.6" height="0.7"/>
			<rect x="1609.8" y="467.5" class="st9" width="13.6" height="0.7"/>
			<rect x="1609.8" y="477.8" class="st9" width="13.6" height="0.7"/>
			<rect x="1609.8" y="472.6" class="st9" width="13.6" height="0.7"/>
			<rect x="1604.5" y="457.6" class="st9" width="0.8" height="25.7"/>
			<rect x="1600.2" y="462.4" class="st9" width="9.6" height="0.7"/>
			<rect x="1600.2" y="467.5" class="st9" width="9.6" height="0.7"/>
			<rect x="1600.2" y="477.8" class="st9" width="9.6" height="0.7"/>
			<rect x="1600.2" y="472.6" class="st9" width="9.6" height="0.7"/>
			<rect x="1627.8" y="457.6" class="st9" width="0.8" height="25.7"/>
			<rect x="1623.4" y="462.4" class="st9" width="9.6" height="0.7"/>
			<rect x="1623.4" y="467.5" class="st9" width="9.6" height="0.7"/>
			<rect x="1623.4" y="477.8" class="st9" width="9.6" height="0.7"/>
			<rect x="1623.4" y="472.6" class="st9" width="9.6" height="0.7"/>
			<path class="st6" d="M1633.7,457.6v26.8h-34v-26.8h10.7c-0.1,0.3-0.2,0.7-0.2,1.1h-9.1v24.6h31.3v-24.6h-9.1
				c-0.1-0.4-0.1-0.7-0.2-1.1H1633.7z"/>
			<rect x="1608.5" y="458.6" class="st6" width="1.5" height="24.6"/>
			<rect x="1623.3" y="458.6" class="st6" width="1.5" height="24.6"/>
			<rect x="1597.2" y="484.4" class="st7" width="38.9" height="2.7"/>
		</g>
		<g>
			<g>
				<path class="st6" d="M1542.4,411.5v29.7h14v-29.7H1542.4z M1554.9,440.7h-11.1v-27.9h11.1V440.7z"/>
				<rect x="1540.8" y="441.3" class="st7" width="17.4" height="2.1"/>
				<rect x="1543.8" y="412.9" class="st8" width="11.1" height="27.9"/>
			</g>
			<rect x="1548.9" y="412.9" class="st9" width="0.9" height="27.9"/>
			<rect x="1543.8" y="418" class="st9" width="11.1" height="0.8"/>
			<rect x="1543.8" y="423.6" class="st9" width="11.1" height="0.8"/>
			<rect x="1543.8" y="434.8" class="st9" width="11.1" height="0.8"/>
			<rect x="1543.8" y="429.2" class="st9" width="11.1" height="0.8"/>
		</g>
		<g>
			<g>
				<path class="st6" d="M1569.3,411.5v29.7h14v-29.7H1569.3z M1581.8,440.7h-11.1v-27.9h11.1V440.7z"/>
				<rect x="1567.7" y="441.3" class="st7" width="17.4" height="2.1"/>
				<rect x="1570.8" y="412.9" class="st8" width="11.1" height="27.9"/>
			</g>
			<rect x="1575.8" y="412.9" class="st9" width="0.9" height="27.9"/>
			<rect x="1570.8" y="418" class="st9" width="11.1" height="0.8"/>
			<rect x="1570.8" y="423.6" class="st9" width="11.1" height="0.8"/>
			<rect x="1570.8" y="434.8" class="st9" width="11.1" height="0.8"/>
			<rect x="1570.8" y="429.2" class="st9" width="11.1" height="0.8"/>
		</g>
		<g>
			<g>
				<path class="st6" d="M1596.2,411.5v29.7h14v-29.7H1596.2z M1608.8,440.7h-11.1v-27.9h11.1V440.7z"/>
				<rect x="1594.5" y="441.3" class="st7" width="17.4" height="2.1"/>
				<rect x="1597.7" y="412.9" class="st8" width="11.1" height="27.9"/>
			</g>
			<rect x="1602.8" y="412.9" class="st9" width="0.9" height="27.9"/>
			<rect x="1597.7" y="418" class="st9" width="11.1" height="0.8"/>
			<rect x="1597.7" y="423.6" class="st9" width="11.1" height="0.8"/>
			<rect x="1597.7" y="434.8" class="st9" width="11.1" height="0.8"/>
			<rect x="1597.7" y="429.2" class="st9" width="11.1" height="0.8"/>
		</g>
		<g>
			<g>
				<path class="st6" d="M1623.2,411.5v29.7h14v-29.7H1623.2z M1635.7,440.7h-11.1v-27.9h11.1V440.7z"/>
				<rect x="1621.4" y="441.3" class="st7" width="17.4" height="2.1"/>
				<rect x="1624.5" y="412.9" class="st8" width="11.1" height="27.9"/>
			</g>
			<rect x="1629.7" y="412.9" class="st9" width="0.9" height="27.9"/>
			<rect x="1624.5" y="418" class="st9" width="11.1" height="0.8"/>
			<rect x="1624.5" y="423.6" class="st9" width="11.1" height="0.8"/>
			<rect x="1624.5" y="434.8" class="st9" width="11.1" height="0.8"/>
			<rect x="1624.5" y="429.2" class="st9" width="11.1" height="0.8"/>
		</g>
		<g>
			<rect x="1416.2" y="398.9" class="st6" width="16.8" height="20.8"/>
			<polygon class="st9" points="1416.2,398.9 1424.7,393 1433,398.9 		"/>
			<rect x="1415.3" y="419.7" class="st7" width="18.6" height="1.8"/>
			<rect x="1419" y="401.5" class="st8" width="11.2" height="15.6"/>
			<g>
				<rect x="1424" y="401.5" class="st9" width="1.2" height="15.6"/>
				<rect x="1419" y="405.7" class="st9" width="11.2" height="1.1"/>
				<rect x="1419" y="411.5" class="st9" width="11.2" height="1.1"/>
			</g>
		</g>
		<g>
			<rect x="1364.2" y="398.9" class="st6" width="8.4" height="20.8"/>
			<path class="st9" d="M1372.7,398.9h-8.4V393C1368.4,393.5,1371.2,395.6,1372.7,398.9z"/>
			<rect x="1364.2" y="419.7" class="st7" width="9.3" height="1.8"/>
			<rect x="1364.2" y="401.5" class="st8" width="5.6" height="15.6"/>
			<g>
				<rect x="1364.2" y="401.5" class="st9" width="0.6" height="15.6"/>
				<rect x="1364.2" y="405.6" class="st9" width="5.6" height="1.1"/>
				<rect x="1364.2" y="411.5" class="st9" width="5.6" height="1"/>
			</g>
		</g>
		<g>
			<polygon class="st5" points="1534.4,435.2 1528.8,435.2 1505,418.2 1481.2,435.2 1475.7,435.2 1505,414.2 		"/>
			<polygon class="st6" points="1528.8,435.2 1481.2,435.2 1505,418.2 		"/>
			<rect x="1475.7" y="435.2" class="st5" width="58.8" height="2.6"/>
			<rect x="1475.7" y="437.8" class="st6" width="58.8" height="1.3"/>
		</g>
		<g>
			<path class="st5" d="M1490.8,441.2h-6.1c-0.5,0-0.9-0.4-0.9-0.9V440c0-0.5,0.4-0.9,0.9-0.9h6.1c0.5,0,0.9,0.4,0.9,0.9v0.2
				C1491.7,440.8,1491.2,441.2,1490.8,441.2z"/>
			<path class="st5" d="M1491.8,493.2h-8.4c-0.5,0-0.9-0.4-0.9-0.9v-0.8c0-0.5,0.4-0.9,0.9-0.9h8.4c0.5,0,0.9,0.4,0.9,0.9v0.8
				C1492.8,492.8,1492.3,493.2,1491.8,493.2z"/>
			<polygon class="st9" points="1490.2,441.2 1487.7,441.2 1485.2,441.2 1484.8,490.9 1487.7,490.9 1490.5,490.9 		"/>
		</g>
		<g>
			<path class="st5" d="M1519.3,441.2h6.1c0.5,0,0.9-0.4,0.9-0.9V440c0-0.5-0.4-0.9-0.9-0.9h-6.1c-0.5,0-0.9,0.4-0.9,0.9v0.2
				C1518.4,440.8,1518.8,441.2,1519.3,441.2z"/>
			<path class="st5" d="M1518.2,493.2h8.4c0.5,0,0.9-0.4,0.9-0.9v-0.8c0-0.5-0.4-0.9-0.9-0.9h-8.4c-0.5,0-0.9,0.4-0.9,0.9v0.8
				C1517.2,492.8,1517.7,493.2,1518.2,493.2z"/>
			<polygon class="st9" points="1519.9,441.2 1522.3,441.2 1524.8,441.2 1525.2,490.9 1522.3,490.9 1519.5,490.9 		"/>
		</g>
		<g>
			<path class="st6" d="M1505,453.1L1505,453.1L1505,453.1L1505,453.1L1505,453.1c0,0-11.2,3.1-11.2,9.8v30.2h11.2V463v-6v6v30.2
				h11.2V463C1516.2,456.3,1505,453.1,1505,453.1z"/>
			<path class="st14" d="M1514.7,464.5v28.7h-19.3v-28.7c0-6.4,9.6-9.4,9.6-9.4S1514.7,458.1,1514.7,464.5z"/>
		</g>
		<path class="st0" d="M1364.3,313.1c0,0-3.5,0.8-3.5,3.2s-1,9.7-2.2,9.7s-0.3,0.9,0,0.9s5.7,0,5.7,0V313.1z"/>
		<rect x="1250.2" y="426" class="st1" width="114.1" height="74"/>
		<rect x="1196.5" y="433.9" class="st2" width="53.7" height="66.1"/>
		<rect x="1250.2" y="386.6" class="st3" width="114.1" height="39.5"/>
		<rect x="1196.5" y="402.7" class="st4" width="53.7" height="33.5"/>
		<rect x="1250.2" y="426" class="st5" width="114.1" height="2.8"/>
		<rect x="1250.2" y="428.6" class="st6" width="114.1" height="1.4"/>
		<g>
			<g>
				<path class="st6" d="M1263.5,438.3V477h17v-38.8L1263.5,438.3L1263.5,438.3z M1265.2,440h13.6v36.3h-13.6V440z"/>
				<rect x="1261.4" y="477" class="st7" width="21.2" height="2.7"/>
				<rect x="1265.2" y="440" class="st8" width="13.6" height="36.3"/>
			</g>
			<rect x="1271.4" y="440" class="st9" width="1.1" height="36.3"/>
			<rect x="1265.2" y="446.8" class="st9" width="13.6" height="1.1"/>
			<rect x="1265.2" y="454.1" class="st9" width="13.6" height="1.1"/>
			<rect x="1265.2" y="468.6" class="st9" width="13.6" height="1.1"/>
			<rect x="1265.2" y="461.3" class="st9" width="13.6" height="1.1"/>
		</g>
		<g>
			<g>
				<path class="st6" d="M1294.2,438.3V477h17v-38.8L1294.2,438.3L1294.2,438.3z M1295.9,440h13.6v36.3h-13.6V440z"/>
				<rect x="1292.2" y="477" class="st7" width="21.2" height="2.7"/>
				<rect x="1295.9" y="440" class="st8" width="13.6" height="36.3"/>
			</g>
			<rect x="1302.2" y="440" class="st9" width="1.1" height="36.3"/>
			<rect x="1295.9" y="446.8" class="st9" width="13.6" height="1.1"/>
			<rect x="1295.9" y="454.1" class="st9" width="13.6" height="1.1"/>
			<rect x="1295.9" y="468.6" class="st9" width="13.6" height="1.1"/>
			<rect x="1295.9" y="461.3" class="st9" width="13.6" height="1.1"/>
		</g>
		<g>
			<g>
				<path class="st6" d="M1325,438.3V477h17v-38.8L1325,438.3L1325,438.3z M1326.8,440h13.6v36.3h-13.6V440z"/>
				<rect x="1322.9" y="477" class="st7" width="21.2" height="2.7"/>
				<rect x="1326.8" y="440" class="st8" width="13.6" height="36.3"/>
			</g>
			<rect x="1332.9" y="440" class="st9" width="1.1" height="36.3"/>
			<rect x="1326.8" y="446.8" class="st9" width="13.6" height="1.1"/>
			<rect x="1326.8" y="454.1" class="st9" width="13.6" height="1.1"/>
			<rect x="1326.8" y="468.6" class="st9" width="13.6" height="1.1"/>
			<rect x="1326.8" y="461.3" class="st9" width="13.6" height="1.1"/>
		</g>
		<polygon class="st9" points="1364.2,354.3 1346.8,354.3 1346.8,390.4 1364.2,390.4 1381.8,390.4 1381.8,354.3 	"/>
		<path class="st5" d="M1345.9,312v-1.6c0.9,0,1.7-0.8,2.1-1.8h16.3v3.4H1345.9z"/>
		<path class="st5" d="M1364.2,350.3h-20.9v1.8c1.1,0,2,0.9,2.4,2.1h18.5h18.5c0.4-1.2,1.3-2.1,2.4-2.1v-1.8H1364.2z"/>
		<polygon class="st9" points="1364.2,336.3 1348.2,336.3 1348.2,350.8 1364.2,350.8 1380.4,350.8 1380.4,336.3 	"/>
		<rect x="1355.9" y="312" class="st9" width="2.5" height="24.3"/>
		<rect x="1348.9" y="312" class="st9" width="2.5" height="24.3"/>
		<path class="st5" d="M1381,336.3h-16.8h-16.8c-0.7,0-1.2,0.8-1.2,1.7c0,0.9,0.5,1.7,1.2,1.7h16.8h16.8c0.7,0,1.2-0.8,1.2-1.7
			C1382.2,337.1,1381.8,336.3,1381,336.3z"/>
		<path class="st10" d="M1364.3,308.6v-26.5c0,0-11.9,0.9-12.3,26.5H1364.3z"/>
		<path class="st11" d="M1364.3,282.2c0,0-6.9,7.5-6.5,26.5h6.5V282.2z"/>
		<g>
			<g>
				<path class="st6" d="M1355.8,438.3V477h8.5v-0.7h-6.8V440h6.8v-1.8L1355.8,438.3L1355.8,438.3z"/>
				<rect x="1353.7" y="477" class="st7" width="10.6" height="2.7"/>
				<rect x="1357.5" y="440" class="st8" width="6.8" height="36.3"/>
			</g>
			<rect x="1363.8" y="440" class="st9" width="0.5" height="36.3"/>
			<rect x="1357.5" y="446.8" class="st9" width="6.8" height="1"/>
			<rect x="1357.5" y="454.1" class="st9" width="6.8" height="1"/>
			<rect x="1357.5" y="468.6" class="st9" width="6.8" height="1"/>
			<rect x="1357.5" y="461.3" class="st9" width="6.8" height="1.1"/>
		</g>
		<rect x="1266.8" y="368.6" class="st12" width="9" height="23.6"/>
		<path class="st15" d="M1364.2,361.7c-4.8,0-8.7,3.9-8.7,8.8s3.9,8.8,8.7,8.8c4.8,0,8.7-3.9,8.7-8.8S1369.2,361.7,1364.2,361.7z"/>
		<rect x="1081.2" y="402.7" class="st1" width="115.4" height="97.3"/>
		<rect x="1191.8" y="493.2" class="st13" width="63.6" height="6.8"/>
		<polygon class="st3" points="1138.8,379.2 1200.9,404.6 1138.8,404.6 1076.7,404.6 	"/>
		<rect x="1076.7" y="404.6" class="st5" width="124.3" height="2.8"/>
		<rect x="1076.7" y="407.2" class="st6" width="124.3" height="1.8"/>
		<g>
			<circle class="st6" cx="1163.5" cy="459.5" r="8.2"/>
			<rect x="1147.9" y="458.6" class="st8" width="9" height="24.6"/>
			<path class="st8" d="M1147.9,458.7v24.6h31.3v-24.6h-9.1c-0.1-0.4-0.1-0.7-0.2-1.1h-12.7c-0.1,0.3-0.2,0.7-0.2,1.1H1147.9z"/>
			<path class="st8" d="M1157.2,457.6h12.7c-0.8-2.7-3.3-4.7-6.3-4.7C1160.5,452.8,1158,454.8,1157.2,457.6z"/>
			<rect x="1156.9" y="457.6" class="st9" width="13.2" height="1.1"/>
			<rect x="1163" y="452.8" class="st9" width="1.1" height="30.5"/>
			<rect x="1156.8" y="462.4" class="st9" width="13.6" height="0.7"/>
			<rect x="1156.8" y="467.5" class="st9" width="13.6" height="0.7"/>
			<rect x="1156.8" y="477.8" class="st9" width="13.6" height="0.7"/>
			<rect x="1156.8" y="472.6" class="st9" width="13.6" height="0.7"/>
			<rect x="1174.9" y="457.6" class="st9" width="0.8" height="25.7"/>
			<rect x="1170.5" y="462.4" class="st9" width="9.6" height="0.7"/>
			<rect x="1170.5" y="467.5" class="st9" width="9.6" height="0.7"/>
			<rect x="1170.5" y="477.8" class="st9" width="9.6" height="0.7"/>
			<rect x="1170.5" y="472.6" class="st9" width="9.6" height="0.7"/>
			<rect x="1151.5" y="457.6" class="st9" width="0.8" height="25.7"/>
			<rect x="1147.2" y="462.4" class="st9" width="9.6" height="0.7"/>
			<rect x="1147.2" y="467.5" class="st9" width="9.6" height="0.7"/>
			<rect x="1147.2" y="477.8" class="st9" width="9.6" height="0.7"/>
			<rect x="1147.2" y="472.6" class="st9" width="9.6" height="0.7"/>
			<path class="st6" d="M1146.5,457.6v26.8h34v-26.8h-10.7c0.1,0.3,0.2,0.7,0.2,1.1h9.1v24.6h-31.3v-24.6h9.1
				c0.1-0.4,0.1-0.7,0.2-1.1H1146.5z"/>
			<rect x="1170.2" y="458.6" class="st6" width="1.5" height="24.6"/>
			<rect x="1155.4" y="458.6" class="st6" width="1.5" height="24.6"/>
			<rect x="1144" y="484.4" class="st7" width="38.9" height="2.7"/>
		</g>
		<g>
			<circle class="st6" cx="1111.9" cy="459.5" r="8.2"/>
			<rect x="1096.2" y="458.6" class="st8" width="9" height="24.6"/>
			<path class="st8" d="M1096.2,458.7v24.6h31.3v-24.6h-9.1c-0.1-0.4-0.1-0.7-0.2-1.1h-12.7c-0.1,0.3-0.2,0.7-0.2,1.1H1096.2z"/>
			<path class="st8" d="M1105.5,457.6h12.7c-0.8-2.7-3.3-4.7-6.3-4.7C1108.9,452.8,1106.3,454.8,1105.5,457.6z"/>
			<rect x="1105.2" y="457.6" class="st9" width="13.2" height="1.1"/>
			<rect x="1111.3" y="452.8" class="st9" width="1.1" height="30.5"/>
			<rect x="1105.2" y="462.4" class="st9" width="13.6" height="0.7"/>
			<rect x="1105.2" y="467.5" class="st9" width="13.6" height="0.7"/>
			<rect x="1105.2" y="477.8" class="st9" width="13.6" height="0.7"/>
			<rect x="1105.2" y="472.6" class="st9" width="13.6" height="0.7"/>
			<rect x="1123.2" y="457.6" class="st9" width="0.8" height="25.7"/>
			<rect x="1118.8" y="462.4" class="st9" width="9.6" height="0.7"/>
			<rect x="1118.8" y="467.5" class="st9" width="9.6" height="0.7"/>
			<rect x="1118.8" y="477.8" class="st9" width="9.6" height="0.7"/>
			<rect x="1118.8" y="472.6" class="st9" width="9.6" height="0.7"/>
			<rect x="1099.9" y="457.6" class="st9" width="0.8" height="25.7"/>
			<rect x="1095.5" y="462.4" class="st9" width="9.6" height="0.7"/>
			<rect x="1095.5" y="467.5" class="st9" width="9.6" height="0.7"/>
			<rect x="1095.5" y="477.8" class="st9" width="9.6" height="0.7"/>
			<rect x="1095.5" y="472.6" class="st9" width="9.6" height="0.7"/>
			<path class="st6" d="M1094.9,457.6v26.8h34v-26.8h-10.7c0.1,0.3,0.2,0.7,0.2,1.1h9.1v24.6h-31.3v-24.6h9.1
				c0.1-0.4,0.1-0.7,0.2-1.1H1094.9z"/>
			<rect x="1118.5" y="458.6" class="st6" width="1.5" height="24.6"/>
			<rect x="1103.8" y="458.6" class="st6" width="1.5" height="24.6"/>
			<rect x="1092.4" y="484.4" class="st7" width="38.9" height="2.7"/>
		</g>
		<g>
			<g>
				<path class="st6" d="M1172.2,411.5v29.7h14v-29.7H1172.2z M1173.7,412.9h11.1v27.9h-11.1V412.9z"/>
				<rect x="1170.4" y="441.3" class="st7" width="17.4" height="2.1"/>
				<rect x="1173.7" y="412.9" class="st8" width="11.1" height="27.9"/>
			</g>
			<rect x="1178.8" y="412.9" class="st9" width="0.9" height="27.9"/>
			<rect x="1173.7" y="418" class="st9" width="11.1" height="0.8"/>
			<rect x="1173.7" y="423.6" class="st9" width="11.1" height="0.8"/>
			<rect x="1173.7" y="434.8" class="st9" width="11.1" height="0.8"/>
			<rect x="1173.7" y="429.2" class="st9" width="11.1" height="0.8"/>
		</g>
		<g>
			<g>
				<path class="st6" d="M1145.3,411.5v29.7h14v-29.7H1145.3z M1146.8,412.9h11.1v27.9h-11.1V412.9z"/>
				<rect x="1143.5" y="441.3" class="st7" width="17.4" height="2.1"/>
				<rect x="1146.8" y="412.9" class="st8" width="11.1" height="27.9"/>
			</g>
			<rect x="1151.8" y="412.9" class="st9" width="0.9" height="27.9"/>
			<rect x="1146.8" y="418" class="st9" width="11.1" height="0.8"/>
			<rect x="1146.8" y="423.6" class="st9" width="11.1" height="0.8"/>
			<rect x="1146.8" y="434.8" class="st9" width="11.1" height="0.8"/>
			<rect x="1146.8" y="429.2" class="st9" width="11.1" height="0.8"/>
		</g>
		<g>
			<g>
				<path class="st6" d="M1118.4,411.5v29.7h14v-29.7H1118.4z M1119.8,412.9h11.1v27.9h-11.1V412.9z"/>
				<rect x="1116.7" y="441.3" class="st7" width="17.4" height="2.1"/>
				<rect x="1119.8" y="412.9" class="st8" width="11.1" height="27.9"/>
			</g>
			<rect x="1124.9" y="412.9" class="st9" width="0.9" height="27.9"/>
			<rect x="1119.8" y="418" class="st9" width="11.1" height="0.8"/>
			<rect x="1119.8" y="423.6" class="st9" width="11.1" height="0.8"/>
			<rect x="1119.8" y="434.8" class="st9" width="11.1" height="0.8"/>
			<rect x="1119.8" y="429.2" class="st9" width="11.1" height="0.8"/>
		</g>
		<g>
			<g>
				<path class="st6" d="M1091.4,411.5v29.7h14v-29.7H1091.4z M1092.9,412.9h11.1v27.9h-11.1V412.9z"/>
				<rect x="1089.8" y="441.3" class="st7" width="17.4" height="2.1"/>
				<rect x="1092.9" y="412.9" class="st8" width="11.1" height="27.9"/>
			</g>
			<rect x="1098" y="412.9" class="st9" width="0.9" height="27.9"/>
			<rect x="1092.9" y="418" class="st9" width="11.1" height="0.8"/>
			<rect x="1092.9" y="423.6" class="st9" width="11.1" height="0.8"/>
			<rect x="1092.9" y="434.8" class="st9" width="11.1" height="0.8"/>
			<rect x="1092.9" y="429.2" class="st9" width="11.1" height="0.8"/>
		</g>
		<g>
			<rect x="1295.5" y="398.9" class="st6" width="16.8" height="20.8"/>
			<polygon class="st9" points="1312.3,398.9 1303.9,393 1295.5,398.9 		"/>
			<rect x="1294.7" y="419.7" class="st7" width="18.6" height="1.8"/>
			<rect x="1298.3" y="401.5" class="st8" width="11.2" height="15.6"/>
			<g>
				<rect x="1303.3" y="401.5" class="st9" width="1.2" height="15.6"/>
				<rect x="1298.3" y="405.7" class="st9" width="11.2" height="1.1"/>
				<rect x="1298.3" y="411.5" class="st9" width="11.2" height="1.1"/>
			</g>
		</g>
		<g>
			<rect x="1355.9" y="398.9" class="st6" width="8.4" height="20.8"/>
			<path class="st9" d="M1355.9,398.9h8.4V393C1360.2,393.5,1357.4,395.6,1355.9,398.9z"/>
			<rect x="1354.9" y="419.7" class="st7" width="9.3" height="1.8"/>
			<rect x="1358.8" y="401.5" class="st8" width="5.6" height="15.6"/>
			<g>
				<rect x="1363.7" y="401.5" class="st9" width="0.6" height="15.6"/>
				<rect x="1358.8" y="405.6" class="st9" width="5.6" height="1.1"/>
				<rect x="1358.8" y="411.5" class="st9" width="5.6" height="1"/>
			</g>
		</g>
		<g>
			<polygon class="st5" points="1194.2,435.2 1199.8,435.2 1223.5,418.2 1247.3,435.2 1252.9,435.2 1223.5,414.2 		"/>
			<polygon class="st6" points="1199.8,435.2 1247.3,435.2 1223.5,418.2 		"/>
			<rect x="1194.2" y="435.2" class="st5" width="58.8" height="2.6"/>
			<rect x="1194.2" y="437.8" class="st6" width="58.8" height="1.3"/>
		</g>
		<g>
			<path class="st5" d="M1237.8,441.2h6.1c0.5,0,0.9-0.4,0.9-0.9V440c0-0.5-0.4-0.9-0.9-0.9h-6.1c-0.5,0-0.9,0.4-0.9,0.9v0.2
				C1236.9,440.8,1237.3,441.2,1237.8,441.2z"/>
			<path class="st5" d="M1236.8,493.2h8.4c0.5,0,0.9-0.4,0.9-0.9v-0.8c0-0.5-0.4-0.9-0.9-0.9h-8.4c-0.5,0-0.9,0.4-0.9,0.9v0.8
				C1235.8,492.8,1236.2,493.2,1236.8,493.2z"/>
			<polygon class="st9" points="1238.4,441.2 1240.9,441.2 1243.3,441.2 1243.8,490.9 1240.9,490.9 1238,490.9 		"/>
		</g>
		<g>
			<path class="st5" d="M1209.2,441.2h-6.1c-0.5,0-0.9-0.4-0.9-0.9V440c0-0.5,0.4-0.9,0.9-0.9h6.1c0.5,0,0.9,0.4,0.9,0.9v0.2
				C1210.2,440.8,1209.8,441.2,1209.2,441.2z"/>
			<path class="st5" d="M1210.4,493.2h-8.4c-0.5,0-0.9-0.4-0.9-0.9v-0.8c0-0.5,0.4-0.9,0.9-0.9h8.4c0.5,0,0.9,0.4,0.9,0.9v0.8
				C1211.3,492.8,1210.9,493.2,1210.4,493.2z"/>
			<polygon class="st9" points="1208.7,441.2 1206.2,441.2 1203.8,441.2 1203.4,490.9 1206.2,490.9 1209,490.9 		"/>
		</g>
		<g>
			<path class="st6" d="M1223.5,453.1L1223.5,453.1L1223.5,453.1L1223.5,453.1L1223.5,453.1c0,0,11.2,3.1,11.2,9.8v30.2h-11.2V463v-6
				v6v30.2h-11.2V463C1212.3,456.3,1223.5,453.1,1223.5,453.1z"/>
			<path class="st14" d="M1213.9,464.5v28.7h19.3v-28.7c0-6.4-9.6-9.4-9.6-9.4S1213.9,458.1,1213.9,464.5z"/>
		</g>
	</g>
	<g id="Chapel">
		<rect x="768" y="251.9" class="st16" width="73.2" height="247.8"/>
		<polygon class="st16" points="938.6,362.5 938.6,499.7 841.3,499.7 841.3,362.5 889.9,334.2 	"/>
		<polygon class="st17" points="938.6,358.7 938.6,362.7 889.9,334.5 841.3,362.7 841.3,358.7 889.9,330.4 	"/>
		<g>
			<g>
				<g>
					<path class="st8" d="M889.9,356c-10.2,0-29.9,15.8-29.9,34.2c0,14.8,0,60.4,0,60.4h29.9h29.9c0,0,0-45.7,0-60.4
						c0-11.2-7.2-21.4-15.1-27.7C899.5,358.5,894,356,889.9,356z"/>
					<path class="st17" d="M920.8,451.7H859v-61.4c0-19.3,20.4-35.2,30.9-35.2c4.3,0,10,2.5,15.4,6.8c9.7,7.7,15.5,18.3,15.5,28.4
						L920.8,451.7L920.8,451.7z M861,449.7h57.8v-59.4c0-9.5-5.5-19.5-14.7-26.9c-5-4-10.3-6.4-14.2-6.4c-9.5,0-28.9,15.4-28.9,33.2
						L861,449.7L861,449.7z"/>
				</g>
				<g>
					<g>
						<g>
							<path class="st17" d="M920.8,451.7h-31.9v-61.1c0-8.8,4.1-16.2,7.6-20.7c2.2-3,4.8-5.7,7.7-8l0.6-0.5l0.6,0.5
								c9.6,7.8,15.3,18.5,15.3,28.7v61.1H920.8z M890.9,449.7h27.9v-59.1c0-9.4-5.2-19.3-13.9-26.7c-2.5,2.1-4.8,4.5-6.8,7.1
								c-3.3,4.3-7.2,11.3-7.2,19.5V449.7z"/>
						</g>
						<g>
							<path class="st17" d="M890.9,390.6h-2c0-4.9,1.3-9.9,3.8-14.8c1.1-2,2.3-4.1,3.8-6l1.6,1.2c-1.4,1.8-2.6,3.8-3.6,5.7
								C892.1,381.3,890.9,386,890.9,390.6z"/>
						</g>
						<g>
							<path class="st17" d="M890.9,390.6h-2c0-4.9,1.3-9.9,3.8-14.8l1.8,0.9C892.1,381.3,890.9,386,890.9,390.6z"/>
						</g>
						<g>
							<path class="st17" d="M898.3,390.6h-2c0-4.6-1.2-9.3-3.6-13.8l1.8-0.9C897,380.7,898.3,385.7,898.3,390.6z"/>
						</g>
						<g>
							<path class="st17" d="M898.3,450.7h-2v-60.1c0-4.9,1.3-9.9,3.8-14.8l1.8,0.9c-2.4,4.6-3.6,9.2-3.6,13.8V450.7z"/>
						</g>
						<g>
							<path class="st17" d="M913.1,450.7h-2v-60.1c0-4.9,1.3-9.9,3.8-14.8l1.8,0.9c-2.4,4.6-3.6,9.2-3.6,13.8V450.7z"/>
						</g>
						<g>
							<path class="st17" d="M913.1,390.6h-2c0-4.6-1.2-9.3-3.6-13.8l1.8-0.9C911.8,380.7,913.1,385.7,913.1,390.6z"/>
						</g>
						<g>
							<path class="st17" d="M905.8,390.6h-2c0-8.3-3.9-15.2-7.2-19.5l1.6-1.2C901.6,374.4,905.8,381.7,905.8,390.6z"/>
						</g>
						<g>
							<path class="st17" d="M920.8,390.6h-2c0-7.9-4.1-15-7.5-19.5l1.6-1.2C918.1,376.7,920.8,383.9,920.8,390.6z"/>
						</g>
						<g>
							<path class="st17" d="M905.8,390.6h-2c0-8.8,4.1-16.2,7.6-20.7l1.6,1.2C909.6,375.4,905.8,382.3,905.8,390.6z"/>
						</g>
						<g>
							<path class="st18" d="M904.8,390.6"/>
						</g>
						<g>
							<rect x="903.8" y="390.6" class="st17" width="2" height="60.1"/>
						</g>
					</g>
					<g>
						<g>
							<path class="st17" d="M890.9,451.7H859v-61.1c0-8.8,4.1-16.2,7.6-20.7c2.2-3,4.8-5.7,7.7-8l0.6-0.5l0.6,0.5
								c9.6,7.8,15.3,18.5,15.3,28.7v61.1H890.9z M861,449.7H889v-59.1c0-9.4-5.2-19.3-13.9-26.7c-2.5,2.1-4.8,4.5-6.8,7.1
								c-3.3,4.3-7.2,11.3-7.2,19.5V449.7z"/>
						</g>
						<g>
							<path class="st17" d="M861,390.6h-2c0-4.9,1.3-9.9,3.8-14.8c1.1-2,2.3-4.1,3.8-6l1.6,1.2c-1.4,1.8-2.6,3.8-3.6,5.7
								C862.3,381.3,861,386,861,390.6z"/>
						</g>
						<g>
							<path class="st17" d="M861,390.6h-2c0-4.9,1.3-9.9,3.8-14.8l1.8,0.9C862.3,381.3,861,386,861,390.6z"/>
						</g>
						<g>
							<path class="st17" d="M868.4,390.6h-2c0-4.6-1.2-9.3-3.6-13.8l1.8-0.9C867.2,380.7,868.4,385.7,868.4,390.6z"/>
						</g>
						<g>
							<path class="st17" d="M868.4,450.7h-2v-60.1c0-4.9,1.3-9.9,3.8-14.8l1.8,0.9c-2.4,4.6-3.6,9.2-3.6,13.8V450.7z"/>
						</g>
						<g>
							<path class="st17" d="M883.2,450.7h-2v-60.1c0-4.9,1.3-9.9,3.8-14.8l1.8,0.9c-2.4,4.6-3.6,9.2-3.6,13.8V450.7z"/>
						</g>
						<g>
							<path class="st17" d="M883.2,390.6h-2c0-4.6-1.2-9.3-3.6-13.8l1.8-0.9C881.9,380.7,883.2,385.7,883.2,390.6z"/>
						</g>
						<g>
							<path class="st17" d="M875.8,390.6h-2c0-8.3-3.9-15.2-7.2-19.5l1.6-1.2C871.8,374.4,875.8,381.7,875.8,390.6z"/>
						</g>
						<g>
							<path class="st17" d="M890.9,390.6h-2c0-7.9-4.1-15-7.5-19.5l1.6-1.2C888.2,376.7,890.9,383.9,890.9,390.6z"/>
						</g>
						<g>
							<path class="st17" d="M875.8,390.6h-2c0-8.8,4.1-16.2,7.6-20.7l1.6,1.2C879.8,375.4,875.8,382.3,875.8,390.6z"/>
						</g>
						<g>
							<path class="st18" d="M874.8,390.6"/>
						</g>
						<g>
							<rect x="873.8" y="390.6" class="st17" width="2" height="60.1"/>
						</g>
					</g>
				</g>
			</g>
			<g>
				<rect x="860" y="410.6" class="st17" width="59.8" height="2"/>
			</g>
		</g>
		<g>
			<path class="st8" d="M813.5,420.1v29h-17.7v-29c0-5.3,2.5-9.7,4.6-12.4c1.2-1.6,2.7-3.2,4.3-4.5
				C810.2,407.8,813.5,414.1,813.5,420.1z"/>
			<g>
				<g>
					<path class="st17" d="M805.1,401.8l-0.4-0.3l-0.4,0.3c-1.8,1.5-3.5,3.2-4.9,5.1c-2.2,2.9-4.8,7.6-4.8,13.2v30.3h20.2v-30.3
						C814.8,413.6,811.2,406.7,805.1,401.8z M813.5,449.1h-17.7v-29c0-5.3,2.5-9.7,4.6-12.4c1.2-1.6,2.7-3.2,4.3-4.5
						c5.5,4.7,8.9,11,8.9,17L813.5,449.1L813.5,449.1z"/>
				</g>
				<g>
					<path class="st17" d="M795.8,420.1h-1.3c0-3.1,0.8-6.3,2.4-9.4c0.7-1.3,1.5-2.6,2.4-3.8l1,0.8c-0.9,1.2-1.7,2.4-2.3,3.6
						C796.6,414.2,795.8,417.2,795.8,420.1z"/>
				</g>
				<g>
					<path class="st17" d="M795.8,420.1h-1.3c0-3.1,0.8-6.3,2.4-9.4l1.1,0.6C796.6,414.2,795.8,417.2,795.8,420.1z"/>
				</g>
				<g>
					<path class="st17" d="M800.5,420.1h-1.3c0-2.9-0.8-5.9-2.3-8.8l1.1-0.6C799.8,413.8,800.5,416.9,800.5,420.1z"/>
				</g>
				<g>
					<path class="st17" d="M800.5,449.7h-1.3v-29.6c0-3.1,0.8-6.3,2.4-9.4l1.1,0.6c-1.5,2.9-2.3,5.9-2.3,8.8L800.5,449.7L800.5,449.7
						z"/>
				</g>
				<g>
					<path class="st17" d="M809.9,449.7h-1.3v-29.6c0-3.1,0.8-6.3,2.4-9.4l1.1,0.6c-1.5,2.9-2.3,5.9-2.3,8.8L809.9,449.7L809.9,449.7
						z"/>
				</g>
				<g>
					<path class="st17" d="M809.9,420.1h-1.3c0-2.9-0.8-5.9-2.3-8.8l1.1-0.6C809.1,413.8,809.9,416.9,809.9,420.1z"/>
				</g>
				<g>
					<path class="st17" d="M805.2,420.1H804c0-5.3-2.5-9.7-4.6-12.4l1-0.8C802.6,409.8,805.2,414.5,805.2,420.1z"/>
				</g>
				<g>
					<path class="st17" d="M814.8,420.1h-1.3c0-5-2.6-9.5-4.8-12.4l1-0.8C813.1,411.2,814.8,415.8,814.8,420.1z"/>
				</g>
				<g>
					<path class="st17" d="M805.2,420.1H804c0-5.6,2.6-10.3,4.8-13.2l1,0.8C807.8,410.4,805.2,414.8,805.2,420.1z"/>
				</g>
				<g>
					<path class="st18" d="M804.6,420.1"/>
				</g>
				<g>
					<rect x="803.9" y="420.1" class="st17" width="1.3" height="29.6"/>
				</g>
				<path class="st17" d="M804.3,402.8"/>
			</g>
		</g>
		<g>
			<path class="st17" d="M804.8,463.7c-4.1,0-11.9,6.3-11.9,13.7c0,5.9,0,22.6,0,22.6h11.9h11.9c0,0,0-16.7,0-22.6
				c0-4.5-2.9-8.5-6-11C808.5,464.7,806.3,463.7,804.8,463.7z"/>
			<path class="st19" d="M794.8,500v-22.6c0-6.5,7.1-11.7,9.9-11.7c0.9,0,2.6,0.6,4.7,2.2c2.5,2,5.3,5.6,5.3,9.5V500H794.8z"/>
		</g>
		<g>
			<polygon class="st20" points="840,468.6 840,401 838.3,398 838.3,316.7 837.8,316.2 837.8,250.9 835.8,252.2 833.6,250.9
				833.6,316.2 833.1,316.7 833.1,398 831.5,401 831.5,468.6 830.1,473.4 830.1,500 835.8,500 841.3,500 841.3,473.4 		"/>
			<path class="st21" d="M841.8,475h-12c-0.4,0-0.7-0.3-0.7-0.7v-0.2c0-0.4,0.3-0.7,0.7-0.7h12c0.4,0,0.7,0.3,0.7,0.7v0.2
				C842.4,474.7,842.1,475,841.8,475z"/>
			<path class="st21" d="M840.2,402.3h-9c-0.4,0-0.7-0.3-0.7-0.7v-0.2c0-0.4,0.3-0.7,0.7-0.7h9c0.4,0,0.7,0.3,0.7,0.7v0.2
				C840.9,402,840.6,402.3,840.2,402.3z"/>
			<path class="st21" d="M838.6,318.3h-5.8c-0.4,0-0.7-0.3-0.7-0.7v-0.2c0-0.4,0.3-0.7,0.7-0.7h5.8c0.4,0,0.7,0.3,0.7,0.7v0.2
				C839.3,318,839,318.3,838.6,318.3z"/>
		</g>
		<g>
			<polygon class="st20" points="769.4,468.6 769.4,401 771,398 771,316.7 771.5,316.2 771.5,250.9 773.6,252.2 775.8,250.9
				775.8,316.2 776.3,316.7 776.3,398 777.9,401 777.9,468.6 779.2,473.4 779.2,500 773.6,500 768,500 768,473.4 		"/>
			<path class="st21" d="M767.6,475h12c0.4,0,0.7-0.3,0.7-0.7v-0.2c0-0.4-0.3-0.7-0.7-0.7h-12c-0.4,0-0.7,0.3-0.7,0.7v0.2
				C766.9,474.7,767.2,475,767.6,475z"/>
			<path class="st21" d="M769.1,402.3h9c0.4,0,0.7-0.3,0.7-0.7v-0.2c0-0.4-0.3-0.7-0.7-0.7h-9c-0.4,0-0.7,0.3-0.7,0.7v0.2
				C768.4,402,768.8,402.3,769.1,402.3z"/>
			<path class="st21" d="M770.8,318.3h5.8c0.4,0,0.7-0.3,0.7-0.7v-0.2c0-0.4-0.3-0.7-0.7-0.7h-5.8c-0.4,0-0.7,0.3-0.7,0.7v0.2
				C770,318,770.3,318.3,770.8,318.3z"/>
		</g>
		<path class="st22" d="M844.1,252.2v1.2c-0.8,0.3-1.3,1.1-1.3,2.1c0,0.1,0,0.1,0,0.2h-38.1v-3.5H844.1z"/>
		<path class="st22" d="M765.3,252.2v1.2c0.8,0.3,1.3,1.1,1.3,2.1c0,0.1,0,0.1,0,0.2h38.1v-3.5H765.3z"/>
		<g>
			<polygon class="st16" points="835.8,193.3 829.8,219.8 829.8,252.2 835.8,252.2 841.8,252.2 841.8,219.8 		"/>
			<polygon class="st20" points="835.8,193.3 833,219.8 833,252.2 835.8,252.2 838.4,252.2 838.4,219.8 		"/>
			<path class="st22" d="M843.5,222H828c-0.8,0-1.4-0.6-1.4-1.4l0,0c0-0.8,0.6-1.4,1.4-1.4h15.5c0.8,0,1.4,0.6,1.4,1.4l0,0
				C844.8,221.4,844.2,222,843.5,222z"/>
		</g>
		<g>
			<polygon class="st16" points="804.8,208.1 800.2,228 800.2,252.2 804.8,252.2 809.3,252.2 809.3,228 		"/>
			<polygon class="st20" points="804.8,208.1 802.8,228 802.8,252.2 804.8,252.2 806.8,252.2 806.8,228 		"/>
			<path class="st22" d="M810.6,229.6H799c-0.6,0-1-0.5-1-1l0,0c0-0.6,0.5-1,1-1h11.6c0.6,0,1,0.5,1,1l0,0
				C811.6,229.2,811.1,229.6,810.6,229.6z"/>
		</g>
		<g>
			<polygon class="st16" points="773.6,193.3 779.8,219.8 779.8,252.2 773.6,252.2 767.6,252.2 767.6,219.8 		"/>
			<polygon class="st20" points="773.6,193.3 776.4,219.8 776.4,252.2 773.6,252.2 770.9,252.2 770.9,219.8 		"/>
			<path class="st22" d="M765.9,222h15.5c0.8,0,1.4-0.6,1.4-1.4l0,0c0-0.8-0.6-1.4-1.4-1.4h-15.5c-0.8,0-1.4,0.6-1.4,1.4l0,0
				C764.5,221.4,765.1,222,765.9,222z"/>
		</g>
		<path class="st20" d="M793.9,236.4v6.2h-7.8v-6.2h-6.4v15.8h20.6v-15.8H793.9z M793.9,244.7v5.5h-3v-5.5H793.9L793.9,244.7z
			 M789,244.7v5.5h-3v-5.5h0.1H789z M781.8,238.4h2.3v11.8h-2.3V238.4z M798.2,250.2H796v-11.8h2.3V250.2z"/>
		<path class="st20" d="M809.3,236.4v15.8h20.5v-15.8h-6.4v6.2h-7.8v-6.2H809.3z M815.8,244.7h2.9v5.5h-3L815.8,244.7L815.8,244.7z
			 M823.5,244.7L823.5,244.7l0.1,5.5h-3v-5.5H823.5z M827.8,250.2h-2.3v-11.8h2.3V250.2z M811.3,238.4h2.3v11.8h-2.3V238.4z"/>
		<g>
			<rect x="799.2" y="266.8" class="st20" width="10.7" height="51.6"/>
		</g>
		<g>
			<rect x="799.2" y="323.1" class="st20" width="10.7" height="51.6"/>
		</g>
		<g>
			<rect x="815.2" y="266.8" class="st20" width="10.7" height="51.6"/>
		</g>
		<g>
			<rect x="815.2" y="323.1" class="st20" width="10.7" height="51.6"/>
		</g>
		<g>
			<rect x="783.8" y="266.8" class="st20" width="10.7" height="51.6"/>
		</g>
		<g>
			<rect x="783.8" y="323.1" class="st20" width="10.7" height="51.6"/>
		</g>
		<path class="st20" d="M944.8,500c0-3.1,0-31.2,0-31.2l-2.2-3.7v-64.2l-1.6-8.7v-33.5h-2.4V500H944.8z"/>
		<path class="st20" d="M932.3,500c0-3.1,0-31.2,0-31.2l2.2-3.7v-64.2l1.6-8.7v-33.5h2.4V500H932.3z"/>
		<path class="st21" d="M944.8,468.3h-12.4c-0.9,0-1.6,0.7-1.6,1.6l0,0c0,0.9,0.7,1.6,1.6,1.6h12.4c0.9,0,1.6-0.7,1.6-1.6l0,0
			C946.3,469,945.6,468.3,944.8,468.3z"/>
		<path class="st21" d="M943.2,400.7H934c-0.9,0-1.6,0.7-1.6,1.6l0,0c0,0.9,0.7,1.6,1.6,1.6h9.3c0.9,0,1.6-0.7,1.6-1.6l0,0
			C944.8,401.4,944.1,400.7,943.2,400.7z"/>
		<g>
			<polygon class="st16" points="835.8,193.3 829.8,219.8 829.8,252.2 835.8,252.2 841.8,252.2 841.8,219.8 		"/>
			<polygon class="st20" points="835.8,193.3 833,219.8 833,252.2 835.8,252.2 838.4,252.2 838.4,219.8 		"/>
			<path class="st22" d="M843.5,222H828c-0.8,0-1.4-0.6-1.4-1.4l0,0c0-0.8,0.6-1.4,1.4-1.4h15.5c0.8,0,1.4,0.6,1.4,1.4l0,0
				C844.8,221.4,844.2,222,843.5,222z"/>
		</g>
		<polygon class="st20" points="938.6,358.7 941,358.7 938.6,340.2 	"/>
		<polygon class="st20" points="938.6,358.7 936.1,358.7 938.6,340.2 	"/>
		<path class="st21" d="M941.6,357.7h-6.1c-0.5,0-0.9,0.4-0.9,0.9l0,0c0,0.5,0.4,0.9,0.9,0.9h6.1c0.5,0,0.9-0.4,0.9-0.9l0,0
			C942.6,358.1,942.1,357.7,941.6,357.7z"/>
	</g>
	<g id="DH_1_">
		<path id="XMLID_14_" class="st5" d="M2104.5,447.2v5.5h27.7V450c0,0-4,0.8-4-4h-23.7V447.2z"/>
		<polygon id="XMLID_10_" class="st9" points="2124.2,454.9 2123.4,496.2 2128.9,496.2 2127.6,454.9 	"/>
		<rect id="XMLID_8_" x="2104.5" y="496.2" class="st13" width="27.1" height="4"/>
		<polygon id="XMLID_7_" class="st9" points="2106.4,454.9 2105.5,496.2 2111,496.2 2109.9,454.9 	"/>
		<rect x="1833.2" y="378.9" class="st1" width="271.3" height="121.3"/>
		<g>
			<path class="st8" d="M1980,406.3V446h-22.5v-39.8c0-6.2,5-11.2,11.2-11.2S1980,400.1,1980,406.3z"/>
			<rect x="1952.5" y="448" class="st7" width="32.4" height="2.5"/>
			<path class="st23" d="M1975.2,406.3h-12.7c0-1.8,0.7-3.3,1.9-4.5c1.2-1.2,2.7-1.9,4.5-1.9s3.3,0.7,4.5,1.9
				C1974.4,402.9,1975.2,404.5,1975.2,406.3z"/>
			<polyline class="st23" points="1980.5,406.3 1975.2,406.3 1968.8,406.3 1962.4,406.3 1957,406.3 		"/>
			<polyline class="st23" points="1980.5,414.2 1975.2,414.2 1968.8,414.2 1962.4,414.2 1957,414.2 		"/>
			<polyline class="st23" points="1980.5,422.2 1975.2,422.2 1968.8,422.2 1962.4,422.2 1957,422.2 		"/>
			<polyline class="st23" points="1980.5,430.1 1975.2,430.1 1968.8,430.1 1962.4,430.1 1957,430.1 		"/>
			<polyline class="st23" points="1980.5,438.1 1975.2,438.1 1968.8,438.1 1962.4,438.1 1957,438.1 		"/>
			<polyline class="st23" points="1968.8,394.5 1968.8,399.9 1968.8,406.3 1968.8,406.3 		"/>
			<polyline class="st23" points="1977.2,398 1973.2,401.8 1968.8,406.3 1968.8,406.3 		"/>
			<polyline class="st23" points="1960.4,398 1964.3,401.8 1968.8,406.3 1968.8,406.3 		"/>
			<line class="st23" x1="1968.8" y1="395" x2="1968.8" y2="448"/>
			<line class="st23" x1="1975.2" y1="448" x2="1975.2" y2="406.3"/>
			<line class="st23" x1="1962.4" y1="448" x2="1962.4" y2="406.3"/>
			<path class="st6" d="M1968.8,393c-7.3,0-13.2,5.9-13.2,13.2V448h26.5v-41.8C1982,399,1976.2,393,1968.8,393z M1980,446h-22.5
				v-39.8c0-6.2,5-11.2,11.2-11.2s11.2,5,11.2,11.2V446H1980z"/>
		</g>
		<g>
			<path class="st8" d="M2082.2,406.3V446h-22.5v-39.8c0-6.2,5-11.2,11.2-11.2C2077.1,395,2082.2,400.1,2082.2,406.3z"/>
			<rect x="2054.8" y="448" class="st7" width="32.4" height="2.5"/>
			<path class="st23" d="M2077.4,406.3h-12.7c0-1.8,0.7-3.3,1.9-4.5c1.1-1.2,2.7-1.9,4.5-1.9c1.8,0,3.3,0.7,4.5,1.9
				C2076.5,402.9,2077.4,404.5,2077.4,406.3z"/>
			<polyline class="st23" points="2082.8,406.3 2077.4,406.3 2071,406.3 2064.6,406.3 2059.2,406.3 		"/>
			<polyline class="st23" points="2082.8,414.2 2077.4,414.2 2071,414.2 2064.6,414.2 2059.2,414.2 		"/>
			<polyline class="st23" points="2082.8,422.2 2077.4,422.2 2071,422.2 2064.6,422.2 2059.2,422.2 		"/>
			<polyline class="st23" points="2082.8,430.1 2077.4,430.1 2071,430.1 2064.6,430.1 2059.2,430.1 		"/>
			<polyline class="st23" points="2082.8,438.1 2077.4,438.1 2071,438.1 2064.6,438.1 2059.2,438.1 		"/>
			<polyline class="st23" points="2071,394.5 2071,399.9 2071,406.3 2071,406.3 		"/>
			<polyline class="st23" points="2079.2,398 2075.5,401.8 2071,406.3 2071,406.3 		"/>
			<polyline class="st23" points="2062.6,398 2066.5,401.8 2071,406.3 2071,406.3 		"/>
			<line class="st23" x1="2071" y1="395" x2="2071" y2="448"/>
			<line class="st23" x1="2077.4" y1="448" x2="2077.4" y2="406.3"/>
			<line class="st23" x1="2064.6" y1="448" x2="2064.6" y2="406.3"/>
			<path class="st6" d="M2071,393c-7.3,0-13.2,5.9-13.2,13.2V448h26.5v-41.8C2084.2,399,2078.2,393,2071,393z M2082.2,446h-22.5
				v-39.8c0-6.2,5-11.2,11.2-11.2c6.2,0,11.2,5,11.2,11.2V446H2082.2z"/>
		</g>
		<g>
			<path class="st8" d="M1855.3,406.3V446h22.5v-39.8c0-6.2-5-11.2-11.2-11.2S1855.3,400.1,1855.3,406.3z"/>
			<rect x="1850.4" y="448" class="st7" width="32.4" height="2.5"/>
			<path class="st23" d="M1860.2,406.3h12.7c0-1.8-0.7-3.3-1.9-4.5c-1.2-1.2-2.7-1.9-4.5-1.9s-3.3,0.7-4.5,1.9
				C1861,402.9,1860.2,404.5,1860.2,406.3z"/>
			<polyline class="st23" points="1878.3,406.3 1872.9,406.3 1866.7,406.3 1860.2,406.3 1854.8,406.3 		"/>
			<polyline class="st23" points="1878.3,414.2 1872.9,414.2 1866.7,414.2 1860.2,414.2 1854.8,414.2 		"/>
			<polyline class="st23" points="1878.3,422.2 1872.9,422.2 1866.7,422.2 1860.2,422.2 1854.8,422.2 		"/>
			<polyline class="st23" points="1878.3,430.1 1872.9,430.1 1866.7,430.1 1860.2,430.1 1854.8,430.1 		"/>
			<polyline class="st23" points="1878.3,438.1 1872.9,438.1 1866.7,438.1 1860.2,438.1 1854.8,438.1 		"/>
			<polyline class="st23" points="1866.7,406.3 1866.7,406.3 1866.7,399.9 1866.7,394.5 		"/>
			<polyline class="st23" points="1866.7,406.3 1866.7,406.3 1862.2,401.8 1858.3,398 		"/>
			<polyline class="st23" points="1866.7,406.3 1866.7,406.3 1871.2,401.8 1874.9,398 		"/>
			<line class="st23" x1="1866.7" y1="395" x2="1866.7" y2="448"/>
			<line class="st23" x1="1860.2" y1="406.3" x2="1860.2" y2="448"/>
			<line class="st23" x1="1872.9" y1="406.3" x2="1872.9" y2="448"/>
			<path class="st6" d="M1853.3,406.3V448h26.5v-41.8c0-7.3-5.9-13.2-13.2-13.2C1859.3,393,1853.3,399,1853.3,406.3z M1855.3,406.3
				c0-6.2,5-11.2,11.2-11.2s11.2,5,11.2,11.2V446h-22.5v-39.7H1855.3z"/>
		</g>
		<g>
			<path class="st8" d="M1906.4,406.3V446h22.5v-39.8c0-6.2-5-11.2-11.2-11.2S1906.4,400.1,1906.4,406.3z"/>
			<rect x="1901.5" y="448" class="st7" width="32.4" height="2.5"/>
			<path class="st23" d="M1911.3,406.3h12.7c0-1.8-0.7-3.3-1.9-4.5c-1.2-1.2-2.7-1.9-4.5-1.9s-3.3,0.7-4.5,1.9
				C1912,402.9,1911.3,404.5,1911.3,406.3z"/>
			<polyline class="st23" points="1929.4,406.3 1924,406.3 1917.8,406.3 1911.3,406.3 1905.9,406.3 		"/>
			<polyline class="st23" points="1929.4,414.2 1924,414.2 1917.8,414.2 1911.3,414.2 1905.9,414.2 		"/>
			<polyline class="st23" points="1929.4,422.2 1924,422.2 1917.8,422.2 1911.3,422.2 1905.9,422.2 		"/>
			<polyline class="st23" points="1929.4,430.1 1924,430.1 1917.8,430.1 1911.3,430.1 1905.9,430.1 		"/>
			<polyline class="st23" points="1929.4,438.1 1924,438.1 1917.8,438.1 1911.3,438.1 1905.9,438.1 		"/>
			<polyline class="st23" points="1917.8,406.3 1917.8,406.3 1917.8,399.9 1917.8,394.5 		"/>
			<polyline class="st23" points="1917.8,406.3 1917.8,406.3 1913.2,401.8 1909.4,398 		"/>
			<polyline class="st23" points="1917.8,406.3 1917.8,406.3 1922.2,401.8 1926,398 		"/>
			<line class="st23" x1="1917.8" y1="395" x2="1917.8" y2="448"/>
			<line class="st23" x1="1911.3" y1="406.3" x2="1911.3" y2="448"/>
			<line class="st23" x1="1924" y1="406.3" x2="1924" y2="448"/>
			<path class="st6" d="M1904.4,406.3V448h26.5v-41.8c0-7.3-5.9-13.2-13.2-13.2C1910.4,393,1904.4,399,1904.4,406.3z M1906.4,406.3
				c0-6.2,5-11.2,11.2-11.2s11.2,5,11.2,11.2V446h-22.5v-39.7H1906.4z"/>
		</g>
		<g>
			<path class="st8" d="M2008.7,406.3V446h22.5v-39.8c0-6.2-5-11.2-11.2-11.2S2008.7,400.1,2008.7,406.3z"/>
			<rect x="2003.7" y="448" class="st7" width="32.4" height="2.5"/>
			<path class="st23" d="M2013.5,406.3h12.7c0-1.8-0.7-3.3-1.9-4.5c-1.2-1.2-2.7-1.9-4.5-1.9s-3.3,0.7-4.5,1.9
				C2014.2,402.9,2013.5,404.5,2013.5,406.3z"/>
			<polyline class="st23" points="2031.7,406.3 2026.2,406.3 2019.8,406.3 2013.5,406.3 2008.2,406.3 		"/>
			<polyline class="st23" points="2031.7,414.2 2026.2,414.2 2019.8,414.2 2013.5,414.2 2008.2,414.2 		"/>
			<polyline class="st23" points="2031.7,422.2 2026.2,422.2 2019.8,422.2 2013.5,422.2 2008.2,422.2 		"/>
			<polyline class="st23" points="2031.7,430.1 2026.2,430.1 2019.8,430.1 2013.5,430.1 2008.2,430.1 		"/>
			<polyline class="st23" points="2031.7,438.1 2026.2,438.1 2019.8,438.1 2013.5,438.1 2008.2,438.1 		"/>
			<polyline class="st23" points="2019.8,406.3 2019.8,406.3 2019.8,399.9 2019.8,394.5 		"/>
			<polyline class="st23" points="2019.8,406.3 2019.8,406.3 2015.4,401.8 2011.5,398 		"/>
			<polyline class="st23" points="2019.8,406.3 2019.8,406.3 2024.3,401.8 2028.2,398 		"/>
			<line class="st23" x1="2019.8" y1="395" x2="2019.8" y2="448"/>
			<line class="st23" x1="2013.5" y1="406.3" x2="2013.5" y2="448"/>
			<line class="st23" x1="2026.2" y1="406.3" x2="2026.2" y2="448"/>
			<path class="st6" d="M2006.7,406.3V448h26.5v-41.8c0-7.3-5.9-13.2-13.2-13.2C2012.5,393,2006.7,399,2006.7,406.3z M2008.7,406.3
				c0-6.2,5-11.2,11.2-11.2s11.2,5,11.2,11.2V446h-22.5v-39.7H2008.7z"/>
		</g>
		<g>
			<g>
				<path class="st6" d="M1866.7,457.3v1.3h8.9v27.9h-8.9v0.5h10.2v-29.7L1866.7,457.3L1866.7,457.3z"/>
				<rect x="1866.7" y="487" class="st7" width="11.7" height="2.1"/>
			</g>
			<g>
				<path class="st6" d="M1866.7,458.6v-1.3h-10.2V487h10.2v-0.5h-8.9v-27.9H1866.7z"/>
				<rect x="1854.9" y="487" class="st7" width="11.7" height="2.1"/>
				<rect x="1857.7" y="458.6" class="st8" width="17.9" height="27.9"/>
			</g>
			<polygon class="st9" points="1871.3,458.6 1871.2,458.6 1871.2,486.5 1871.3,486.5 1871.5,486.5 1871.5,458.6 		"/>
			<polygon class="st9" points="1861.9,458.6 1862.2,458.6 1862.2,486.5 1861.9,486.5 1861.8,486.5 1861.8,458.6 		"/>
			<rect x="1866.7" y="463.8" class="st9" width="8.9" height="0.8"/>
			<rect x="1866.7" y="469.3" class="st9" width="8.9" height="0.8"/>
			<rect x="1866.7" y="480.5" class="st9" width="8.9" height="0.8"/>
			<rect x="1866.7" y="474.9" class="st9" width="8.9" height="0.8"/>
			<rect x="1857.7" y="463.8" class="st9" width="8.9" height="0.8"/>
			<rect x="1857.7" y="469.3" class="st9" width="8.9" height="0.8"/>
			<rect x="1857.7" y="480.5" class="st9" width="8.9" height="0.8"/>
			<rect x="1857.7" y="474.9" class="st9" width="8.9" height="0.8"/>
			<polygon class="st9" points="1866.7,458.6 1866.4,458.6 1866.4,486.5 1866.7,486.5 1866.8,486.5 1866.8,458.6 		"/>
		</g>
		<g>
			<g>
				<path class="st6" d="M2071,457.3v1.3h8.9v27.9h-8.9v0.5h10.2v-29.7L2071,457.3L2071,457.3z"/>
				<rect x="2071" y="487" class="st7" width="11.7" height="2.1"/>
			</g>
			<g>
				<path class="st6" d="M2071,458.6v-1.3h-10.1V487h10.2v-0.5h-8.9v-27.9H2071z"/>
				<rect x="2059.2" y="487" class="st7" width="11.7" height="2.1"/>
				<rect x="2062" y="458.6" class="st8" width="17.9" height="27.9"/>
			</g>
			<polygon class="st9" points="2075.6,458.6 2075.5,458.6 2075.5,486.5 2075.6,486.5 2075.9,486.5 2075.9,458.6 		"/>
			<polygon class="st9" points="2066.2,458.6 2066.5,458.6 2066.5,486.5 2066.2,486.5 2066,486.5 2066,458.6 		"/>
			<rect x="2071" y="463.8" class="st9" width="8.9" height="0.8"/>
			<rect x="2071" y="469.3" class="st9" width="8.9" height="0.8"/>
			<rect x="2071" y="480.5" class="st9" width="8.9" height="0.8"/>
			<rect x="2071" y="474.9" class="st9" width="8.9" height="0.8"/>
			<rect x="2062" y="463.8" class="st9" width="8.9" height="0.8"/>
			<rect x="2062" y="469.3" class="st9" width="8.9" height="0.8"/>
			<rect x="2062" y="480.5" class="st9" width="8.9" height="0.8"/>
			<rect x="2062" y="474.9" class="st9" width="8.9" height="0.8"/>
			<polygon class="st9" points="2071,458.6 2070.8,458.6 2070.8,486.5 2071,486.5 2071.1,486.5 2071.1,458.6 		"/>
		</g>
		<g>
			<g>
				<path class="st6" d="M2019.8,457.3v1.3h8.9v27.9h-8.9v0.5h10.2v-29.7L2019.8,457.3L2019.8,457.3z"/>
				<rect x="2019.8" y="487" class="st7" width="11.7" height="2.1"/>
			</g>
			<g>
				<path class="st6" d="M2019.8,458.6v-1.3h-10.2V487h10.2v-0.5h-8.9v-27.9H2019.8z"/>
				<rect x="2008.2" y="487" class="st7" width="11.7" height="2.1"/>
				<rect x="2010.9" y="458.6" class="st8" width="17.9" height="27.9"/>
			</g>
			<polygon class="st9" points="2024.5,458.6 2024.3,458.6 2024.3,486.5 2024.5,486.5 2024.8,486.5 2024.8,458.6 		"/>
			<polygon class="st9" points="2015.2,458.6 2015.3,458.6 2015.3,486.5 2015.2,486.5 2014.9,486.5 2014.9,458.6 		"/>
			<rect x="2019.8" y="463.8" class="st9" width="8.9" height="0.8"/>
			<rect x="2019.8" y="469.3" class="st9" width="8.9" height="0.8"/>
			<rect x="2019.8" y="480.5" class="st9" width="8.9" height="0.8"/>
			<rect x="2019.8" y="474.9" class="st9" width="8.9" height="0.8"/>
			<rect x="2010.9" y="463.8" class="st9" width="8.9" height="0.8"/>
			<rect x="2010.9" y="469.3" class="st9" width="8.9" height="0.8"/>
			<rect x="2010.9" y="480.5" class="st9" width="8.9" height="0.8"/>
			<rect x="2010.9" y="474.9" class="st9" width="8.9" height="0.8"/>
			<polygon class="st9" points="2019.8,458.6 2019.7,458.6 2019.7,486.5 2019.8,486.5 2020,486.5 2020,458.6 		"/>
		</g>
		<g>
			<g>
				<path class="st6" d="M1968.8,457.3v1.3h8.9v27.9h-8.9v0.5h10.2v-29.7L1968.8,457.3L1968.8,457.3z"/>
				<rect x="1968.8" y="487" class="st7" width="11.7" height="2.1"/>
			</g>
			<g>
				<path class="st6" d="M1968.8,458.6v-1.3h-10.2V487h10.2v-0.5h-8.9v-27.9H1968.8z"/>
				<rect x="1957.2" y="487" class="st7" width="11.7" height="2.1"/>
				<rect x="1959.8" y="458.6" class="st8" width="17.9" height="27.9"/>
			</g>
			<polygon class="st9" points="1973.4,458.6 1973.2,458.6 1973.2,486.5 1973.4,486.5 1973.7,486.5 1973.7,458.6 		"/>
			<polygon class="st9" points="1964.2,458.6 1964.3,458.6 1964.3,486.5 1964.2,486.5 1963.9,486.5 1963.9,458.6 		"/>
			<rect x="1968.8" y="463.8" class="st9" width="8.9" height="0.8"/>
			<rect x="1968.8" y="469.3" class="st9" width="8.9" height="0.8"/>
			<rect x="1968.8" y="480.5" class="st9" width="8.9" height="0.8"/>
			<rect x="1968.8" y="474.9" class="st9" width="8.9" height="0.8"/>
			<rect x="1959.8" y="463.8" class="st9" width="8.9" height="0.8"/>
			<rect x="1959.8" y="469.3" class="st9" width="8.9" height="0.8"/>
			<rect x="1959.8" y="480.5" class="st9" width="8.9" height="0.8"/>
			<rect x="1959.8" y="474.9" class="st9" width="8.9" height="0.8"/>
			<polygon class="st9" points="1968.8,458.6 1968.5,458.6 1968.5,486.5 1968.8,486.5 1968.9,486.5 1968.9,458.6 		"/>
		</g>
		<g>
			<g>
				<path class="st6" d="M1917.8,457.3v1.3h8.9v27.9h-8.9v0.5h10.2v-29.7L1917.8,457.3L1917.8,457.3z"/>
				<rect x="1917.8" y="487" class="st7" width="11.7" height="2.1"/>
			</g>
			<g>
				<path class="st6" d="M1917.8,458.6v-1.3h-10.2V487h10.2v-0.5h-8.9v-27.9H1917.8z"/>
				<rect x="1906" y="487" class="st7" width="11.7" height="2.1"/>
				<rect x="1908.8" y="458.6" class="st8" width="17.9" height="27.9"/>
			</g>
			<polygon class="st9" points="1922.4,458.6 1922.2,458.6 1922.2,486.5 1922.4,486.5 1922.7,486.5 1922.7,458.6 		"/>
			<polygon class="st9" points="1913,458.6 1913.2,458.6 1913.2,486.5 1913,486.5 1912.8,486.5 1912.8,458.6 		"/>
			<rect x="1917.8" y="463.8" class="st9" width="8.9" height="0.8"/>
			<rect x="1917.8" y="469.3" class="st9" width="8.9" height="0.8"/>
			<rect x="1917.8" y="480.5" class="st9" width="8.9" height="0.8"/>
			<rect x="1917.8" y="474.9" class="st9" width="8.9" height="0.8"/>
			<rect x="1908.8" y="463.8" class="st9" width="8.9" height="0.8"/>
			<rect x="1908.8" y="469.3" class="st9" width="8.9" height="0.8"/>
			<rect x="1908.8" y="480.5" class="st9" width="8.9" height="0.8"/>
			<rect x="1908.8" y="474.9" class="st9" width="8.9" height="0.8"/>
			<polygon class="st9" points="1917.8,458.6 1917.5,458.6 1917.5,486.5 1917.8,486.5 1917.9,486.5 1917.9,458.6 		"/>
		</g>
		<rect x="2104.5" y="450.9" class="st24" width="27.7" height="1.8"/>
		<path class="st5" d="M2128.5,452.7h-4.8c-0.6,0-1.1,0.5-1.1,1.1l0,0c0,0.6,0.5,1.1,1.1,1.1h4.8c0.6,0,1.1-0.5,1.1-1.1l0,0
			C2129.5,453.2,2129.1,452.7,2128.5,452.7z"/>
		<path class="st5" d="M2110.5,452.7h-4.8c-0.6,0-1.1,0.5-1.1,1.1l0,0c0,0.6,0.5,1.1,1.1,1.1h4.8c0.6,0,1.1-0.5,1.1-1.1l0,0
			C2111.6,453.2,2111.2,452.7,2110.5,452.7z"/>
		<path id="XMLID_4_" class="st5" d="M1833.2,447.2v5.5h-27.7V450c0,0,4,0.8,4-4h23.7V447.2z"/>
		<polygon id="XMLID_3_" class="st9" points="1813.3,454.9 1814.2,496.2 1808.8,496.2 1809.9,454.9 	"/>
		<rect id="XMLID_2_" x="1806" y="496.2" class="st13" width="27.1" height="4"/>
		<polygon id="XMLID_1_" class="st9" points="1831.2,454.9 1832.2,496.2 1826.7,496.2 1827.8,454.9 	"/>
		<rect x="1805.4" y="450.9" class="st24" width="27.7" height="1.8"/>
		<path class="st5" d="M1809.2,452.7h4.8c0.6,0,1.1,0.5,1.1,1.1l0,0c0,0.6-0.5,1.1-1.1,1.1h-4.8c-0.6,0-1.1-0.5-1.1-1.1l0,0
			C1808,453.2,1808.4,452.7,1809.2,452.7z"/>
		<path class="st5" d="M1827,452.7h4.8c0.6,0,1.1,0.5,1.1,1.1l0,0c0,0.6-0.5,1.1-1.1,1.1h-4.8c-0.6,0-1.1-0.5-1.1-1.1l0,0
			C1825.9,453.2,1826.3,452.7,1827,452.7z"/>
		<path class="st6" d="M1968.8,375.1h-142.9v1.3c2.6,0,4.7,1.9,5.1,4.4h137.9h137.9c0.3-2.5,2.5-4.4,5.1-4.4v-1.3H1968.8z"/>
		<polygon class="st5" points="2107.9,371.2 1968.8,371.2 1829.8,371.2 1825.8,375.1 1968.8,375.1 2111.8,375.1 	"/>
		<polygon class="st3" points="2032.7,326.2 1968.8,326.2 1968.8,326.2 1904.9,326.2 1832.7,371.2 1968.8,371.2 1968.8,348.7
			1968.8,371.2 2105,371.2 	"/>
		<g>
			<rect x="1884.5" y="324.7" class="st1" width="11" height="23.3"/>
			<path class="st7" d="M1896.2,323.5h-12.1c-0.7,0-1.2,0.5-1.2,1.2l0,0c0,0.7,0.5,1.2,1.2,1.2h12.1c0.7,0,1.2-0.5,1.2-1.2l0,0
				C1897.3,324,1896.8,323.5,1896.2,323.5z"/>
		</g>
		<g>
			<rect x="2042" y="324.7" class="st1" width="11" height="23.3"/>
			<path class="st7" d="M2041.4,323.5h12.1c0.7,0,1.2,0.5,1.2,1.2l0,0c0,0.7-0.5,1.2-1.2,1.2h-12.1c-0.7,0-1.2-0.5-1.2-1.2l0,0
				C2040.2,324,2040.8,323.5,2041.4,323.5z"/>
		</g>
	</g>
	<g id="Layer_1_1_">
		<g id="XMLID_27_">
			<path id="XMLID_31_" d="M2727,357v36h5.3v107l-42.8-0.2l-42.8,0.2h-26.5v0.2H2218v-82.4h-7.7v-7.5c0,0,9.1-3.7,23.7-9.2v-65.5h160
				v15.2c9.6-1.8,18.2-2.8,25-2.8c53.9,0,208.7,62.3,208.7,62.3v7.5h-7.7v26.4h26.5V393h5.3v-36h-8.5v-7.2h13.5v-6.1h65.1v6.1h13.5
				v7.2H2727z"/>
			<path id="XMLID_28_" d="M2646.6,443"/>
		</g>
		<g id="XMLID_25_">
		</g>
		<g id="XMLID_24_">
		</g>
		<g id="XMLID_21_">
		</g>
		<g id="XMLID_20_">
		</g>
		<g id="XMLID_19_">
		</g>
		<g id="XMLID_18_">
		</g>
		<g id="XMLID_17_">
		</g>
		<g id="XMLID_16_">
		</g>
		<g id="XMLID_15_">
		</g>
		<g id="XMLID_13_">
		</g>
		<g id="XMLID_11_">
		</g>
	</g>
</g>
</svg>
