<?xml version="1.0" encoding="utf-8"?>
<!-- Generator: Adobe Illustrator 19.0.0, SVG Export Plug-In . SVG Version: 6.00 Build 0)  -->
<svg version="1.1" id="Layer_1" xmlns="http://www.w3.org/2000/svg" xmlns:xlink="http://www.w3.org/1999/xlink" x="0px" y="0px"
	 viewBox="526.3 0 900 500" style="enable-background:new 526.3 0 900 500;" xml:space="preserve">
<g id="overallRoot">
<rect id="XMLID_2_" x="1011.2" y="446.4" width="114" height="54.3"/>
<polygon id="XMLID_4_" points="1008.4,446.9 1046.7,427.5 1068.2,427.5 1068.2,446.9 "/>
<polygon id="XMLID_10_" points="1127.9,446.9 1089.6,427.5 1068.2,427.5 1068.2,446.9 "/>
<rect id="XMLID_5_" x="1025.8" y="427.2" width="5" height="14.8"/>
<rect id="XMLID_14_" x="1105.6" y="427.2" width="5" height="14.8"/>
<path id="XMLID_12_" d="M1011.2,478.4v2.3h-11.6v-1.2c0,0,1.7,0.3,1.7-1.7h9.9V478.4z"/>
<rect id="XMLID_27_" x="1000.9" y="480.7" width="2.4" height="0.9"/>
<polygon id="XMLID_28_" points="1002.8,481.6 1003.2,499 1000.9,499 1001.4,481.6 "/>
<rect id="XMLID_38_" x="1008.4" y="480.7" width="2.4" height="0.9"/>
<rect id="XMLID_35_" x="1000.5" y="499" width="10.6" height="1.7"/>
<polygon id="XMLID_34_" points="1010.4,481.6 1010.7,499 1008.4,499 1008.9,481.6 "/>
<path id="XMLID_50_" d="M1125.2,478.4v2.3h11.6v-1.2c0,0-1.7,0.3-1.7-1.7h-9.9V478.4z"/>
<rect id="XMLID_49_" x="1133.1" y="480.7" width="2.4" height="0.9"/>
<polygon id="XMLID_45_" points="1133.5,481.6 1133.1,499 1135.4,499 1134.9,481.6 "/>
<rect id="XMLID_43_" x="1125.6" y="480.7" width="2.4" height="0.9"/>
<rect id="XMLID_42_" x="1125.2" y="499" width="10.6" height="1.7"/>
<polygon id="XMLID_33_" points="1126,481.6 1125.6,499 1127.9,499 1127.4,481.6 "/>
<rect id="XMLID_55_" x="1008.4" y="446.9" width="6.6" height="2.8"/>
<rect id="XMLID_62_" x="1121.2" y="446.9" width="6.6" height="2.8"/>
<g id="XMLID_88_">
	<polygon id="XMLID_93_" points="1386.8,440.5 1386.8,455.7 1389,455.7 1389,500.6 1371,500.5 1353,500.6 1353,455.7 1355.3,455.7
		1355.3,440.5 1351.7,440.5 1351.7,437.5 1357.4,437.5 1357.4,435 1384.7,435 1384.7,437.5 1390.4,437.5 1390.4,440.5 	"/>
	<path id="XMLID_92_" d="M1353,476.7"/>
	<path id="XMLID_91_" d="M1345.1,462.9v3.1h-3.2v34.7h-169v-34.7h-3.2v-3.1c0,0,65.1-26.2,87.7-26.2
		C1280.1,436.7,1345.1,462.9,1345.1,462.9z"/>
	<rect id="XMLID_90_" x="1341.9" y="477.2" width="11.1" height="23.5"/>
	<rect id="XMLID_89_" x="1179.7" y="431.5" width="67.2" height="29.3"/>
</g>
<rect id="XMLID_1_" x="562.3" y="382.9" width="32.2" height="117.9"/>
<polygon id="XMLID_11_" points="639.8,431.2 639.8,500.7 594.5,500.7 594.5,431.2 617.2,419.8 "/>
<polygon id="XMLID_8_" points="594.5,369.7 594.5,382.9 562.3,382.9 562.3,369.7 565.4,359.3 568.5,369.7 568.5,379.2 570.6,379.2
	570.6,381.1 573.4,381.1 573.4,379.2 575.5,379.2 575.5,376.4 577.5,376.4 577.5,373.8 578.4,367.2 579.3,373.8 579.3,376.4
	581.3,376.4 581.3,379.2 583.4,379.2 583.4,381.1 586.2,381.1 586.2,379.2 588.4,379.2 588.4,369.7 591.4,359.3 "/>
<g id="XMLID_6_">
	<path id="XMLID_48_" d="M945.4,456.1v-4.7l-25.8-10.2l-25.9,11.6v-8.7l-3.8,0v11.2h-27.3v-8.5h-1.9v-9.9h-3.8v9.5h-35.3
		c0,0,0-4.7,0-7.6s1.7-2.4,1.7-2.4v-1.3l-2.8,0v-21.4c0.1-0.5,0.1-1.4,1.4-1.5v-1h-2.1c-0.9,0.1-1-6.9-4.6-8.4v0.4h-2.6v-0.4
		c-3.5,1.5-3.7,8.5-4.6,8.4H806v1c1.4,0.1,1.4,1,1.4,1.5v21.4l-2.7,0v1.3c0,0,1.7-0.5,1.7,2.4s0,7.6,0,7.6h-35.3v-9.5h-3.8v9.9h-1.8
		v8.5h-27.3v-11.2l-3.8,0v8.7l-25.9-11.6l-25.8,10.2v4.7h-3.8v45.1h270.6v-45.1H945.4z M814,449.8c-1.9,0-3.4-1.5-3.4-3.4
		s1.5-3.4,3.4-3.4s3.4,1.5,3.4,3.4S815.9,449.8,814,449.8z"/>
	<path id="XMLID_44_" d="M814,403.2v-0.7l0,0h0.2c0.4,0,0.8,0.1,1.1,0.2v0.4H814z"/>
	<polygon id="XMLID_47_" points="949.3,452.9 949.3,456.1 945.4,456.1 945.4,451.4 	"/>
	<polygon id="XMLID_3_" points="814.2,402.5 814.2,398.1 814,398.1 814,402.5 	"/>
	<rect id="XMLID_46_" x="814" y="401.7" width="1.3" height="1.5"/>
	<rect id="XMLID_37_" x="945.4" y="444.2" width="3.8" height="12"/>
</g>
<g id="XMLID_9_">
	<polygon id="XMLID_39_" points="678.7,452.9 682.5,451.4 682.5,456.1 678.7,456.1 	"/>
	<path id="XMLID_40_" d="M814,402.5v0.7h-1.3v-0.4c0.3-0.1,0.7-0.2,1.1-0.2H814L814,402.5z"/>
	<polygon id="XMLID_13_" points="813.8,402.5 813.8,398.1 814,398.1 814,402.5 	"/>
	<rect id="XMLID_41_" x="812.7" y="401.7" width="1.3" height="1.5"/>
	<rect id="XMLID_36_" x="678.7" y="444.2" width="3.8" height="12"/>
</g>
</g>
</svg>
